<svg height="480pt" viewBox="0 0 480 480" width="480pt" xmlns="http://www.w3.org/2000/svg"><path d="m40 8h400c17.671875 0 32 14.328125 32 32v400c0 17.671875-14.328125 32-32 32h-400c-17.671875 0-32-14.328125-32-32v-400c0-17.671875 14.328125-32 32-32zm0 0" fill="#ebebeb"/><path d="m312 288h80c8.835938 0 16 7.164062 16 16v88c0 8.835938-7.164062 16-16 16h-80c-8.835938 0-16-7.164062-16-16v-88c0-8.835938 7.164062-16 16-16zm0 0" fill="#fbb540"/><path d="m144 232h48v16h-48zm0 0" fill="#8dc79d"/><path d="m40 8h400c17.671875 0 32 14.328125 32 32v32h-464v-32c0-17.671875 14.328125-32 32-32zm0 0" fill="#6cbae5"/><path d="m32 32h16v16h-16zm0 0" fill="#4799cf"/><path d="m64 32h16v16h-16zm0 0" fill="#428dc5"/><path d="m96 32h16v16h-16zm0 0" fill="#277baa"/><path d="m312 200c0 39.765625-32.234375 72-72 72s-72-32.234375-72-72 32.234375-72 72-72 72 32.234375 72 72zm0 0" fill="#6cbae5"/><path d="m272 184c0 17.671875-14.328125 32-32 32s-32-14.328125-32-32 14.328125-32 32-32 32 14.328125 32 32zm0 0" fill="#fbb540"/><path d="m288 248c0-26.507812-21.492188-48-48-48s-48 21.492188-48 48v5.601562c27.277344 24.582032 68.722656 24.582032 96 0zm0 0" fill="#fbb540"/><path d="m304 384h-160c-4.417969 0-8-3.582031-8-8v-48c0-4.417969 3.582031-8 8-8h160zm0 0" fill="#fbb540"/><g fill="#c38325"><path d="m160 344h16v16h-16zm0 0"/><path d="m192 344h16v16h-16zm0 0"/><path d="m224 344h16v16h-16zm0 0"/><path d="m256 344h16v16h-16zm0 0"/></g><path d="m376 344h-16v-16c0-4.417969-3.582031-8-8-8s-8 3.582031-8 8v16h-16v-16c0-13.253906 10.746094-24 24-24s24 10.746094 24 24zm0 0" fill="#ebebeb"/><path d="m328 344h48v32h-48zm0 0" fill="#6cbae5"/><path d="m328 368h48v8h-48zm0 0" fill="#4799cf"/><path d="m112 344h24v16h-24zm0 0" fill="#8dc79d"/><path d="m96 360h-16c-4.417969 0-8-3.582031-8-8v-112c0-4.417969 3.582031-8 8-8h16v16h-8v96h8zm0 0" fill="#8dc79d"/><path d="m112 232h16v16h-16zm0 0" fill="#8dc79d"/><path d="m328 336h16v8h-16zm0 0" fill="#e4e4e2"/><path d="m360 336h16v8h-16zm0 0" fill="#e4e4e2"/><path d="m440 0h-400c-22.082031.0273438-39.9726562 17.917969-40 40v400c.0273438 22.082031 17.917969 39.972656 40 40h400c22.082031-.027344 39.972656-17.917969 40-40v-400c-.027344-22.082031-17.917969-39.9726562-40-40zm-424 40c0-13.253906 10.746094-24 24-24h400c13.253906 0 24 10.746094 24 24v24h-448zm424 424h-400c-13.253906 0-24-10.746094-24-24v-360h448v360c0 13.253906-10.746094 24-24 24zm0 0"/><path d="m32 32h16v16h-16zm0 0"/><path d="m64 32h16v16h-16zm0 0"/><path d="m96 32h16v16h-16zm0 0"/><path d="m186.640625 259.441406.0625.078125c.074219.066407.152344.113281.21875.167969 5.140625 4.589844 10.855469 8.492188 17 11.617188.140625.078124.269531.175781.414063.246093.398437.203125.847656.371094 1.257812.5625 1.597656.796875 3.199219 1.511719 4.886719 2.175781l.519531.222657c1.304688.503906 2.625.976562 4.046875 1.449219.800781.269531 1.601563.519531 2.457031.800781.601563.183593 1.113282.367187 1.769532.550781l3.109374.710938c.707032.160156 1.410157.34375 2.128907.480468l.527343.121094c1.039063.191406 2.023438.277344 3.050782.429688 1.421875.210937 2.839844.464843 4.285156.601562 2.570312.246094 5.105469.382812 7.625.382812s5.015625-.128906 7.601562-.382812c1.6875-.160156 3.335938-.441406 4.992188-.703125.878906-.144531 1.703125-.210937 2.613281-.378906l.386719-.085938c.6875-.136719 1.351562-.3125 2.023438-.464843l3.796874-.878907c.402344-.121093.800782-.289062 1.195313-.410156 1.710937-.511719 3.382813-1.109375 5.046875-1.726563.488281-.175781.96875-.3125 1.464844-.496093l.453125-.207031c1.683593-.671876 3.320312-1.425782 4.9375-2.199219.410156-.203125.800781-.34375 1.222656-.554688.128906-.0625.25-.160156.386719-.222656 6.125-3.125 11.824218-7.019531 16.957031-11.59375.066406-.0625.144531-.109375.21875-.175781l.0625-.078125c30.484375-27.292969 35.460937-73.1875 11.535156-106.378907-23.925781-33.191406-69.039062-42.984374-104.570312-22.695312-35.53125 20.292969-50.023438 64.121094-33.597657 101.59375h-22.726562v16h32.152344c3.121094 4.140625 6.632812 7.96875 10.488281 11.441406zm13.359375-9.601562v-1.839844c.007812-12.648438 5.992188-24.546875 16.144531-32.089844 14.074219 10.796875 33.636719 10.796875 47.710938 0 10.152343 7.542969 16.136719 19.441406 16.144531 32.089844v1.800781c-3.515625 2.800781-7.296875 5.253907-11.289062 7.320313l-.800782.390625c-1.4375.695312-2.894531 1.351562-4.292968 1.921875-1.402344.566406-2.59375 1.007812-3.921876 1.4375l-.925781.3125c-1.714843.527344-3.464843.960937-5.234375 1.34375l-.992187.226562c-.917969.183594-1.871094.277344-2.800781.421875-1.230469.191407-2.476563.398438-3.679688.519531-1.664062.152344-3.359375.226563-5.054688.257813-.34375 0-.6875.046875-1.03125.046875-2.074218 0-4.113281-.121094-6.136718-.3125-.902344-.085938-1.816406-.253906-2.71875-.375-1.175782-.167969-2.359375-.3125-3.519532-.542969l-1.441406-.320312c-1.382812-.304688-2.753906-.664063-4.105468-1.058594-1.351563-.390625-2.863282-.933594-4.222657-1.429687-.457031-.175782-.921875-.328126-1.375-.503907-1.449219-.59375-2.863281-1.226562-4.226562-1.890625-.292969-.140625-.597657-.277344-.894531-.429687-4.007813-2.074219-7.804688-4.53125-11.335938-7.335938zm40-41.839844c-13.253906 0-24-10.746094-24-24s10.746094-24 24-24 24 10.746094 24 24-10.746094 24-24 24zm0-72c23.289062-.042969 44.753906 12.589844 56.023438 32.96875 11.269531 20.378906 10.554687 45.273438-1.863282 64.976562-3.105468-11.875-10.027344-22.394531-19.703125-29.945312 3.597657-6.054688 5.511719-12.957031 5.542969-20 0-22.089844-17.910156-40-40-40s-40 17.910156-40 40c.03125 7.042969 1.945312 13.945312 5.542969 20-9.679688 7.558594-16.605469 18.097656-19.703125 29.984375-12.441406-19.703125-13.164063-44.613281-1.894532-65.007813 11.273438-20.390624 32.753907-33.03125 56.054688-32.976562zm0 0"/><path d="m160 344h16v16h-16zm0 0"/><path d="m192 344h16v16h-16zm0 0"/><path d="m224 344h16v16h-16zm0 0"/><path d="m256 344h16v16h-16zm0 0"/><path d="m376 336v-8c0-13.253906-10.746094-24-24-24s-24 10.746094-24 24v8c-4.417969 0-8 3.582031-8 8v32c0 4.417969 3.582031 8 8 8h48c4.417969 0 8-3.582031 8-8v-32c0-4.417969-3.582031-8-8-8zm-32-8c0-4.417969 3.582031-8 8-8s8 3.582031 8 8v8h-16zm24 40h-32v-16h32zm0 0"/><path d="m392 280h-80c-13.253906 0-24 10.746094-24 24v8h-144c-8.835938 0-16 7.164062-16 16v16h-16v16h16v16c0 8.835938 7.164062 16 16 16h144c0 13.253906 10.746094 24 24 24h80c13.253906 0 24-10.746094 24-24v-88c0-13.253906-10.746094-24-24-24zm-248 96v-48h144v48zm256 16c0 4.417969-3.582031 8-8 8h-80c-4.417969 0-8-3.582031-8-8v-88c0-4.417969 3.582031-8 8-8h80c4.417969 0 8 3.582031 8 8zm0 0"/><path d="m72 240v112c0 4.417969 3.582031 8 8 8h16v-16h-8v-96h8v-16h-16c-4.417969 0-8 3.582031-8 8zm0 0"/><path d="m112 232h16v16h-16zm0 0"/></svg>